<mxfile host="app.diagrams.net" modified="2024-01-23T22:43:14.570Z" agent="Mozilla/5.0 (Windows NT 10.0; Win64; x64) AppleWebKit/537.36 (KHTML, like Gecko) Chrome/120.0.0.0 Safari/537.36" etag="nqeXFiFPuFRJeWSOXbV5" version="22.1.21" type="device">
  <diagram name="Page-1" id="GpWl_0JpCh4WqEkQ_eis">
    <mxGraphModel dx="1050" dy="522" grid="1" gridSize="10" guides="1" tooltips="1" connect="1" arrows="1" fold="1" page="1" pageScale="1" pageWidth="850" pageHeight="1100" math="0" shadow="0">
      <root>
        <mxCell id="0" />
        <mxCell id="1" parent="0" />
        <mxCell id="6dlo150f9cpX4bDVNt8K-1" value="DelimeterChecker&lt;span style=&quot;white-space: pre;&quot;&gt;&#x9;&lt;/span&gt;" style="swimlane;whiteSpace=wrap;html=1;" vertex="1" parent="1">
          <mxGeometry x="310" y="40" width="200" height="200" as="geometry" />
        </mxCell>
        <mxCell id="6dlo150f9cpX4bDVNt8K-2" value="lineNumber&lt;br&gt;charNumber&lt;br&gt;insideSingleLineComment&lt;br&gt;insideMultiLineComment&lt;br&gt;insideLiteral" style="text;html=1;strokeColor=none;fillColor=none;align=center;verticalAlign=middle;whiteSpace=wrap;rounded=0;" vertex="1" parent="6dlo150f9cpX4bDVNt8K-1">
          <mxGeometry x="10" y="30" width="180" height="80" as="geometry" />
        </mxCell>
        <mxCell id="6dlo150f9cpX4bDVNt8K-5" value="DelimeterChecker(String)&lt;br&gt;getCurrentPosition()&lt;br&gt;getNextCharacter()" style="text;html=1;strokeColor=none;fillColor=none;align=center;verticalAlign=middle;whiteSpace=wrap;rounded=0;" vertex="1" parent="6dlo150f9cpX4bDVNt8K-1">
          <mxGeometry x="10" y="130" width="180" height="70" as="geometry" />
        </mxCell>
        <mxCell id="6dlo150f9cpX4bDVNt8K-4" value="" style="endArrow=none;html=1;rounded=0;" edge="1" parent="1">
          <mxGeometry width="50" height="50" relative="1" as="geometry">
            <mxPoint x="310" y="160" as="sourcePoint" />
            <mxPoint x="510" y="160" as="targetPoint" />
          </mxGeometry>
        </mxCell>
        <mxCell id="6dlo150f9cpX4bDVNt8K-6" value="DelimeterCheckerMain" style="swimlane;whiteSpace=wrap;html=1;" vertex="1" parent="1">
          <mxGeometry x="310" y="300" width="200" height="200" as="geometry" />
        </mxCell>
        <mxCell id="6dlo150f9cpX4bDVNt8K-7" value="scanner&lt;br&gt;delimeterChecker&lt;br&gt;delimeterStack&amp;lt;Character&amp;gt;&lt;br&gt;currentChar" style="text;html=1;strokeColor=none;fillColor=none;align=center;verticalAlign=middle;whiteSpace=wrap;rounded=0;" vertex="1" parent="6dlo150f9cpX4bDVNt8K-6">
          <mxGeometry x="10" y="20" width="180" height="80" as="geometry" />
        </mxCell>
        <mxCell id="6dlo150f9cpX4bDVNt8K-8" value="main()&lt;br&gt;isLeftDelimeter(char)&lt;br&gt;isRightDelimeter(char)&lt;br&gt;isMatchingDelimeter(left, right)" style="text;html=1;strokeColor=none;fillColor=none;align=center;verticalAlign=middle;whiteSpace=wrap;rounded=0;" vertex="1" parent="6dlo150f9cpX4bDVNt8K-6">
          <mxGeometry x="10" y="110" width="180" height="70" as="geometry" />
        </mxCell>
        <mxCell id="6dlo150f9cpX4bDVNt8K-9" value="" style="endArrow=classic;html=1;rounded=0;entryX=0.5;entryY=1;entryDx=0;entryDy=0;exitX=0.5;exitY=0;exitDx=0;exitDy=0;" edge="1" parent="1" source="6dlo150f9cpX4bDVNt8K-6" target="6dlo150f9cpX4bDVNt8K-1">
          <mxGeometry width="50" height="50" relative="1" as="geometry">
            <mxPoint x="380" y="320" as="sourcePoint" />
            <mxPoint x="430" y="270" as="targetPoint" />
          </mxGeometry>
        </mxCell>
        <mxCell id="6dlo150f9cpX4bDVNt8K-10" value="" style="endArrow=none;html=1;rounded=0;exitX=0;exitY=0.5;exitDx=0;exitDy=0;entryX=1;entryY=0.5;entryDx=0;entryDy=0;" edge="1" parent="1" source="6dlo150f9cpX4bDVNt8K-6" target="6dlo150f9cpX4bDVNt8K-6">
          <mxGeometry width="50" height="50" relative="1" as="geometry">
            <mxPoint x="380" y="310" as="sourcePoint" />
            <mxPoint x="430" y="260" as="targetPoint" />
          </mxGeometry>
        </mxCell>
        <mxCell id="6dlo150f9cpX4bDVNt8K-11" value="TestFile" style="swimlane;whiteSpace=wrap;html=1;" vertex="1" parent="1">
          <mxGeometry x="580" y="220" width="200" height="200" as="geometry" />
        </mxCell>
        <mxCell id="6dlo150f9cpX4bDVNt8K-12" value="x&lt;br&gt;y" style="text;html=1;strokeColor=none;fillColor=none;align=center;verticalAlign=middle;whiteSpace=wrap;rounded=0;" vertex="1" parent="6dlo150f9cpX4bDVNt8K-11">
          <mxGeometry x="10" y="20" width="180" height="80" as="geometry" />
        </mxCell>
        <mxCell id="6dlo150f9cpX4bDVNt8K-13" value="main()&lt;br&gt;displayMessage()" style="text;html=1;strokeColor=none;fillColor=none;align=center;verticalAlign=middle;whiteSpace=wrap;rounded=0;" vertex="1" parent="6dlo150f9cpX4bDVNt8K-11">
          <mxGeometry x="10" y="110" width="180" height="70" as="geometry" />
        </mxCell>
        <mxCell id="6dlo150f9cpX4bDVNt8K-14" value="" style="endArrow=none;html=1;rounded=0;entryX=1;entryY=0.5;entryDx=0;entryDy=0;" edge="1" parent="1" target="6dlo150f9cpX4bDVNt8K-11">
          <mxGeometry width="50" height="50" relative="1" as="geometry">
            <mxPoint x="580" y="320" as="sourcePoint" />
            <mxPoint x="430" y="260" as="targetPoint" />
          </mxGeometry>
        </mxCell>
        <mxCell id="6dlo150f9cpX4bDVNt8K-15" value="" style="endArrow=classic;html=1;rounded=0;entryX=0;entryY=0.25;entryDx=0;entryDy=0;exitX=0.5;exitY=0;exitDx=0;exitDy=0;" edge="1" parent="1" source="6dlo150f9cpX4bDVNt8K-6" target="6dlo150f9cpX4bDVNt8K-11">
          <mxGeometry width="50" height="50" relative="1" as="geometry">
            <mxPoint x="380" y="310" as="sourcePoint" />
            <mxPoint x="430" y="260" as="targetPoint" />
          </mxGeometry>
        </mxCell>
      </root>
    </mxGraphModel>
  </diagram>
</mxfile>
